<svg xmlns="http://www.w3.org/2000/svg" viewBox="0 0 41.91 29.263"><defs><style>.a{fill:#222052;}</style></defs><title>Fly Emirates</title><path class="a" d="M23.54,1.707A2.369,2.369,0,0,0,23,3.287V8.193a1.464,1.464,0,0,1-.362,1.014c-.132.117-.935.842-.98.881h.466c.129-.134,1.563-1.414,1.728-1.588a2.6,2.6,0,0,0,.658-1.689c0-.212,0-4.526,0-4.715A1.76,1.76,0,0,1,25,.807c.173-.193.718-.67.85-.8l-.46-.005c-.121.119-1.683,1.552-1.847,1.7"/><path class="a" d="M19.98,19.566l1.762,1.555h1.178a4.278,4.278,0,0,0,3.012-1.251,3.691,3.691,0,0,0,1-2.63v-2.56a2.074,2.074,0,0,0-.681-1.5l-.59-.568v1.952l.675.7c.518.565.512,1.585-1.139,3.219a3.37,3.37,0,0,1-2.26,1.075Z"/><path class="a" d="M27.138,10.526a9.994,9.994,0,0,0,.7.741c.669.531.964-.076.531-.764-.1-.167-.515-.446-1.233.023M24.877,9.1a1.972,1.972,0,0,0-.369,1.175v.964h.951a1.581,1.581,0,0,0,.986-.526V9.752s.242.289.472.519c.312-.3,1.153-1.183,1.761-1.183,1.23,0,.948,1.562.445,2.065-.163.162-.882.84-1.111,1.051-.578.559-1.575.289-1.575-1.152,0,0-1.073,1.024-1.225,1.158s-.7.733-.7.733v2.539a2.4,2.4,0,0,1-.721,2c-.185.152-1.475,1.342-1.693,1.548h-.469s.827-.736,1.005-.9A1.8,1.8,0,0,0,23,16.9c0-.164-.019-3.992-.019-3.992h-6.16c-2.132,0-2.591-2.417-2.606-3.063,0-.19,0-2.118,0-2.416a1.612,1.612,0,0,0-.649-1.273h.6c.073.03.457.186.457,1.666l-.027,1.811a1.579,1.579,0,0,0,1.435,1.609l6.962-.006a3.02,3.02,0,0,1,.536-1.29c.2-.217,1.695-1.606,1.855-1.738l.453-.005c-.06.061-.779.72-.958.894"/><path class="a" d="M19.693,15.111c0,.339-1.084,1.249-1.143,1.308-.073-.363-.341-.778-1.158-1.584l1.181-1.2c.783.807,1.119.968,1.119,1.474"/><path class="a" d="M17.638,8.084a2.843,2.843,0,0,1-.687.611h3.7c.975,0,.788-.628.583-.946A12.6,12.6,0,0,0,19.73,5.893Zm4.085-6.663c.261.238.755.888.451,1.2-.254.272-.683.708-.683.708-.018-.159-.424-.534-.424-.534s0,1.154,0,1.294c-.012.522-.2.67-.2.67A3.523,3.523,0,0,1,21.8,6.939c0,.6,0,1.141,0,1.258a.912.912,0,0,1-.221.638c-.081.095-.98.994-1.107,1.115a.989.989,0,0,1-.715.271H16.5c-.521,0-1.058-.407-1.058-.814l.008-1.229a.886.886,0,0,0,.741.42,1.317,1.317,0,0,0,.761-.354l2.485-2.617A19.629,19.629,0,0,0,17.58,4.08a.632.632,0,0,0-.909.385,8.824,8.824,0,0,0,0,2.509s-.72-.737-.9-.913a1.28,1.28,0,0,1,.086-1.646,2.381,2.381,0,0,1,1.551-.824h1.3a3.282,3.282,0,0,1,1.824.868.532.532,0,0,0,.17-.307c0-.455-.005-1.669-.005-1.669-.668-.668-.776-1.356-.441-1.676L21.049,0a2.19,2.19,0,0,0,.674,1.421"/><path class="a" d="M13.43,11.48h-.6a1.466,1.466,0,0,1,.649,1.293v2.988a3.708,3.708,0,0,0,3.5,3.728h1.593a2.265,2.265,0,0,0,1.876-.757,4.825,4.825,0,0,0,.6-.623,2.026,2.026,0,0,0,.687-1.685V15.45a1.851,1.851,0,0,0-.708-1.436c-.14-.144-.562-.546-.562-.546v2s.416.428.584.58a1.034,1.034,0,0,1-.6,1.822H16.924a3.112,3.112,0,0,1-3.043-3.1v-1.63c0-1.663-.45-1.663-.45-1.663"/><path class="a" d="M17.283,15.117c0,.338-1.083,1.247-1.143,1.307-.073-.364-.339-.778-1.152-1.586l1.176-1.2c.8.809,1.118.968,1.118,1.476"/><path class="a" d="M4.967,28.375H3.082c-.587,0-.543-.5-.594-.922V24.706s.414-.01.865-.01a3.313,3.313,0,0,1,1.812.286,1.957,1.957,0,0,0-1.814-1.109H2.488v-.881A2.315,2.315,0,0,0,2.3,22l1.237,0a4.561,4.561,0,0,1,2.786.563s-.167-1.44-2.259-1.44H0a2.374,2.374,0,0,1,.683,1.858l.044,4.989c0,1.264.483,1.286.483,1.286H5.215a1.109,1.109,0,0,0,1.23-1.011l.012-.48s-.289.6-1.49.6"/><path class="a" d="M15.621,27.949V24.458a1.691,1.691,0,0,0-1.9-1.711,1.654,1.654,0,0,0-1.534,1.221,1.812,1.812,0,0,0-1.774-1.233,1.721,1.721,0,0,0-1.625,1.254S8.756,22.78,7.711,22.78l-1.024,0s.587.246.587,1.291v3.875c0,1.293.512,1.3.512,1.3h1.7a1.623,1.623,0,0,1-.651-1.313V24.5a.959.959,0,0,1,1.008-.668.935.935,0,0,1,.842.919l0,3.193c0,1.3.506,1.306.506,1.306h1.7a1.7,1.7,0,0,1-.651-1.318L12.228,24.5a.932.932,0,0,1,.931-.653.918.918,0,0,1,.911.922s0,2.913,0,3.184c.007,1.308.51,1.3.51,1.3.88,0,1.693,0,1.693,0a1.673,1.673,0,0,1-.652-1.3"/><path class="a" d="M18.579,27.947a1.657,1.657,0,0,0,.651,1.307s-.8,0-1.69,0c0,0-.494.006-.494-1.292v-.007l0-3.887c0-1.022-.587-1.286-.587-1.286h.989c.377,0,1.124,0,1.124,1.447l0,3.715Z"/><path class="a" d="M23.8,23.268a.905.905,0,0,0-.887-.468c-1.069,0-1.317,1.275-1.317,1.275-.083-1-.372-1.305-1.1-1.305l-1,0s.6.249.6,1.292l0,3.882c0,1.293.478,1.305.478,1.305h1.69a1.645,1.645,0,0,1-.648-1.316l0-3.174a.86.86,0,0,1,.427-.66,1.345,1.345,0,0,1,1.759.26Z"/><path class="a" d="M31.648,23.5a2.171,2.171,0,0,1,1.005.253l0-.979H31.237V21.3A5.039,5.039,0,0,1,30.1,22.582a9.577,9.577,0,0,1-1.489.9l1.073.02,0,4.5c0,1.249.519,1.249.519,1.249.928,0,1.674,0,1.674,0a1.627,1.627,0,0,1-.645-1.263l0-4.488c.438,0,.134,0,.411,0"/><path class="a" d="M35.747,25.047c.277-.526.5-1.856-.46-1.782-1.1.085-.89,3.071-.89,3.071.363-.41.918-.493,1.35-1.289m1.037.415c-.948,1-1.7.842-2.273,1.578a1.792,1.792,0,0,0,.83,1.351,1.481,1.481,0,0,0,1.977-.741v1.139s-.434.472-1.818.472a2.853,2.853,0,0,1-2.784-3.111c0-1.762.927-3.4,2.665-3.4,1.722-.011,2.653,1.389,1.405,2.716"/><path class="a" d="M17.8,22.249a.768.768,0,0,0,.783-.772.778.778,0,0,0-.783-.789.767.767,0,0,0-.772.789.757.757,0,0,0,.772.772"/><path class="a" d="M40.506,27.494a1.136,1.136,0,0,1-1.252,1.063,1.469,1.469,0,0,1-1.212-.92L38.034,28.8a2.913,2.913,0,0,0,1.6.456,2.195,2.195,0,0,0,2.274-2.122A2,2,0,0,0,41.521,26a5.7,5.7,0,0,0-1.672-1.242c-.764-.45-.661-1.414.463-1.321a1.557,1.557,0,0,1,1.2.889v-1.08a2.814,2.814,0,0,0-1.628-.515,1.741,1.741,0,0,0-1.893,1.544A2.057,2.057,0,0,0,38.939,26a8.528,8.528,0,0,0,.879.556,1.13,1.13,0,0,1,.688.938"/><path class="a" d="M26.676,24.2a1.215,1.215,0,0,1-.869,1.071c-1.021.445-2.309.94-2.309,2.423a1.535,1.535,0,0,0,1.719,1.565,1.375,1.375,0,0,0,1.331-.778c.116.732.484.766.484.766.879,0,1.689,0,1.689,0a1.67,1.67,0,0,1-.661-1.3V24.316a1.831,1.831,0,0,0-1.967-1.549,2.764,2.764,0,0,0-1.575.474v1.127a1.4,1.4,0,0,1,1.226-.894c.722,0,.933.362.933.73m-.906,4.313a.824.824,0,0,1-.907-.905c0-1.458,1.315-1.758,1.661-2.191v2.725a.885.885,0,0,1-.752.371"/></svg>