<svg xmlns="http://www.w3.org/2000/svg" viewBox="0 0 107.221 16.752"><defs><style>.a{fill:#222052;}.b{fill:#fff;}</style></defs><title>Ooredoo</title><path class="a" d="M8.377,0a8.376,8.376,0,1,0,8.376,8.378A8.377,8.377,0,0,0,8.377,0"/><path class="b" d="M11.393,5.358a4.254,4.254,0,0,0-1.347-.916,4.3,4.3,0,0,0-3.339,0,4.268,4.268,0,0,0-1.348.916,4.433,4.433,0,0,0-.908,1.356,4.307,4.307,0,0,0,0,3.34A4.26,4.26,0,0,0,6.707,12.31a4.3,4.3,0,0,0,3.339,0A4.266,4.266,0,0,0,12.3,10.054a4.307,4.307,0,0,0,0-3.34,4.409,4.409,0,0,0-.909-1.356m-.657,4.016a2.685,2.685,0,0,1-.552.814,2.632,2.632,0,0,1-.811.552,2.5,2.5,0,0,1-1.992,0A2.6,2.6,0,0,1,6.018,9.373a2.542,2.542,0,0,1,0-2A2.605,2.605,0,0,1,7.381,6.011a2.5,2.5,0,0,1,1.992,0,2.611,2.611,0,0,1,1.361,1.366,2.553,2.553,0,0,1,0,2"/><path class="a" d="M23.455,0a8.376,8.376,0,1,0,8.377,8.378A8.376,8.376,0,0,0,23.455,0"/><path class="b" d="M26.472,5.358a4.286,4.286,0,0,0-1.349-.916,4.3,4.3,0,0,0-3.337,0,4.268,4.268,0,0,0-1.348.916,4.444,4.444,0,0,0-.909,1.356,4.3,4.3,0,0,0,0,3.34,4.269,4.269,0,0,0,2.258,2.256,4.3,4.3,0,0,0,3.337,0,4.255,4.255,0,0,0,2.257-2.256,4.3,4.3,0,0,0,0-3.34,4.433,4.433,0,0,0-.908-1.356m-.66,4.016a2.6,2.6,0,0,1-1.361,1.366,2.5,2.5,0,0,1-1.991,0,2.626,2.626,0,0,1-.812-.552,2.581,2.581,0,0,1-.55-.814,2.51,2.51,0,0,1,0-2,2.534,2.534,0,0,1,.55-.813,2.581,2.581,0,0,1,.812-.553,2.5,2.5,0,0,1,1.991,0,2.633,2.633,0,0,1,.812.553,2.606,2.606,0,0,1,.549.813,2.527,2.527,0,0,1,0,2"/><path class="a" d="M83.767,0a8.376,8.376,0,1,0,8.378,8.378A8.378,8.378,0,0,0,83.767,0"/><path class="b" d="M86.782,5.358a4.256,4.256,0,0,0-1.347-.916,4.3,4.3,0,0,0-3.337,0,4.251,4.251,0,0,0-1.349.916,4.426,4.426,0,0,0-.909,1.356,4.319,4.319,0,0,0,0,3.34A4.26,4.26,0,0,0,82.1,12.31a4.3,4.3,0,0,0,3.337,0,4.262,4.262,0,0,0,2.258-2.256,4.318,4.318,0,0,0,0-3.34,4.442,4.442,0,0,0-.911-1.356m-.658,4.016a2.677,2.677,0,0,1-.551.814,2.626,2.626,0,0,1-.812.552,2.5,2.5,0,0,1-1.991,0,2.6,2.6,0,0,1-1.362-1.366,2.537,2.537,0,0,1,0-2A2.611,2.611,0,0,1,82.77,6.011a2.5,2.5,0,0,1,1.991,0,2.6,2.6,0,0,1,.812.553,2.627,2.627,0,0,1,.551.813,2.536,2.536,0,0,1,0,2"/><path class="a" d="M98.844,0a8.376,8.376,0,1,0,8.377,8.378A8.376,8.376,0,0,0,98.844,0"/><path class="b" d="M101.861,5.358a4.262,4.262,0,0,0-1.349-.916,4.3,4.3,0,0,0-3.337,0,4.272,4.272,0,0,0-1.348.916,4.415,4.415,0,0,0-.908,1.356,4.3,4.3,0,0,0,0,3.34,4.258,4.258,0,0,0,2.256,2.256,4.3,4.3,0,0,0,3.337,0,4.26,4.26,0,0,0,2.258-2.256,4.319,4.319,0,0,0,0-3.34,4.444,4.444,0,0,0-.909-1.356m-.66,4.016A2.6,2.6,0,0,1,99.84,10.74a2.5,2.5,0,0,1-1.991,0,2.629,2.629,0,0,1-.813-.552,2.677,2.677,0,0,1-.551-.814,2.554,2.554,0,0,1,0-2,2.627,2.627,0,0,1,.551-.813,2.585,2.585,0,0,1,.813-.553,2.5,2.5,0,0,1,1.991,0A2.614,2.614,0,0,1,101.2,7.377a2.526,2.526,0,0,1,0,2"/><path class="a" d="M38.533,0a8.376,8.376,0,1,0,8.376,8.378A8.377,8.377,0,0,0,38.533,0"/><path class="b" d="M40.351,6.675a2.617,2.617,0,0,1,.55.813,2.33,2.33,0,0,1,.163.548h1.72a4.041,4.041,0,0,0-.314-1.224,4.265,4.265,0,0,0-2.258-2.258,4.155,4.155,0,0,0-1.669-.335,4.258,4.258,0,0,0-1.669.327,4.324,4.324,0,0,0-1.356.9,4.226,4.226,0,0,0-.91,1.348,4.312,4.312,0,0,0-.328,1.686v4.05h1.7V8.365h.005a2.428,2.428,0,0,1,.2-.877,2.615,2.615,0,0,1,.549-.813,2.655,2.655,0,0,1,.814-.551,2.53,2.53,0,0,1,1.989,0,2.656,2.656,0,0,1,.813.551"/><path class="a" d="M53.609,0a8.376,8.376,0,1,0,8.379,8.378A8.377,8.377,0,0,0,53.609,0"/><path class="b" d="M57.56,6.83a4.464,4.464,0,0,0-.855-1.394,4.059,4.059,0,0,0-1.332-.964,4.423,4.423,0,0,0-3.44-.024,4.441,4.441,0,0,0-1.352.911,4.284,4.284,0,0,0-.908,1.347,4.343,4.343,0,0,0,0,3.338,4.263,4.263,0,0,0,.909,1.348,4.389,4.389,0,0,0,1.352.91,4.155,4.155,0,0,0,1.67.338,4.928,4.928,0,0,0,1.312-.181,3.961,3.961,0,0,0,2.216-1.591,5.236,5.236,0,0,0,.676-1.428H55.935a2.44,2.44,0,0,1-.87,1.079,2.692,2.692,0,0,1-2.432.23,2.565,2.565,0,0,1-.8-.518,2.608,2.608,0,0,1-.559-.771,2.366,2.366,0,0,1-.231-.955l0-.077h6.844a4.864,4.864,0,0,0-.32-1.6m-6.213.138.07-.114a2.477,2.477,0,0,1,2.2-1.074h0a2.362,2.362,0,0,1,2.17,1.074l.068.114Z"/><path class="a" d="M68.688,0a8.353,8.353,0,0,1,2.563.4V5.089l-.126-.117a2.779,2.779,0,0,0-.482-.352,4.622,4.622,0,0,0-.6-.288,4.959,4.959,0,0,0-.667-.2,2.986,2.986,0,0,0-.685-.078,4.169,4.169,0,0,0-1.669.336,4.279,4.279,0,0,0-2.258,2.261,4.3,4.3,0,0,0,0,3.334,4.269,4.269,0,0,0,2.258,2.258,4.154,4.154,0,0,0,1.669.339,4.251,4.251,0,0,0,1.67-.331,4.311,4.311,0,0,0,1.355-.9A4.142,4.142,0,0,0,72.622,10a4.313,4.313,0,0,0,.329-1.687V1.166A8.377,8.377,0,1,1,68.688,0"/><path class="a" d="M70.5,10.182a2.664,2.664,0,0,1-.814.55,2.481,2.481,0,0,1-1.989,0,2.586,2.586,0,0,1-1.363-1.361,2.511,2.511,0,0,1,0-1.992,2.587,2.587,0,0,1,1.363-1.361,2.514,2.514,0,0,1,1.989,0,2.588,2.588,0,0,1,1.363,1.361,2.523,2.523,0,0,1,0,1.992,2.619,2.619,0,0,1-.549.811"/><path class="b" d="M72.952,8.2V1.052a8.11,8.11,0,0,0-1.7-.765V4.974l-.126-.117a2.879,2.879,0,0,0-.482-.351,4.388,4.388,0,0,0-.6-.288,4.686,4.686,0,0,0-.666-.2,3.058,3.058,0,0,0-.686-.078,4.176,4.176,0,0,0-1.668.335,4.277,4.277,0,0,0-2.259,2.262,4.317,4.317,0,0,0,0,3.335,4.27,4.27,0,0,0,2.259,2.258,4.176,4.176,0,0,0,1.668.338,4.253,4.253,0,0,0,1.67-.331,4.3,4.3,0,0,0,1.355-.9,4.121,4.121,0,0,0,.909-1.344A4.313,4.313,0,0,0,72.952,8.2m-1.7,0a2.451,2.451,0,0,1-.2.994,2.635,2.635,0,0,1-.549.812,2.664,2.664,0,0,1-.814.55,2.482,2.482,0,0,1-1.989,0,2.58,2.58,0,0,1-1.363-1.362,2.5,2.5,0,0,1,0-1.99,2.581,2.581,0,0,1,1.363-1.362,2.507,2.507,0,0,1,1.989,0A2.582,2.582,0,0,1,71.046,7.2a2.446,2.446,0,0,1,.2,1"/></svg>