<svg xmlns="http://www.w3.org/2000/svg" viewBox="0 0 75.67 22.402"><defs><style>.a{fill:#222052;}</style></defs><title>QNB</title><path class="a" d="M12.114,8.959a1.281,1.281,0,0,1-.912.378,1.252,1.252,0,0,1-.912-.378L4.363,3.035A10.11,10.11,0,0,1,6.078,1.864l4.134,4.129V.6c.329-.032.66-.048.99-.048s.654.016.983.048v5.4l4.137-4.129a10.225,10.225,0,0,1,1.722,1.171Zm6.4-6.246a11.573,11.573,0,0,0-2.028-1.382l-.269-.152L12.737,4.661V.1L12.365.056C11.98.024,11.587,0,11.2,0s-.786.024-1.171.056L9.662.1V4.661L6.186,1.179l-.273.152A11.074,11.074,0,0,0,3.891,2.713l-.344.3L9.906,9.361a1.842,1.842,0,0,0,2.594,0l6.355-6.346Z"/><path class="a" d="M11.2,22.4c-.385,0-.787-.025-1.171-.061l-.37-.041V17.851l-3.4,3.4-.277-.142a11.28,11.28,0,0,1-2.036-1.384l-.337-.282,6.289-6.3a1.867,1.867,0,0,1,2.6,0l6.29,6.3-.345.282a10.633,10.633,0,0,1-2.028,1.384l-.276.142-3.406-3.4V22.3l-.37.041c-.384.036-.778.061-1.163.061"/><path class="a" d="M13.1,12.56a1.857,1.857,0,0,1-.006-2.6l6.354-6.351.283.34a10.931,10.931,0,0,1,1.383,2.042l.152.271L17.791,9.723h4.524l.038.366c.033.373.056.742.056,1.111a9.158,9.158,0,0,1-.078,1.227l-.031.361H17.791l3.438,3.43-.15.274a11.553,11.553,0,0,1-1.39,2.024l-.294.332Z"/><path class="a" d="M2.712,18.517a12.491,12.491,0,0,1-1.389-2.023l-.135-.276,3.419-3.429H.1l-.039-.362C.025,12.019,0,11.61,0,11.2a10.69,10.69,0,0,1,.055-1.113L.1,9.723H4.607L1.147,6.259l.143-.268A10.825,10.825,0,0,1,2.666,3.947l.29-.34L9.292,9.95a1.862,1.862,0,0,1,.007,2.6L3,18.848Z"/><path class="a" d="M56.754,14.451S49.626,5.095,49.14,4.467a2.6,2.6,0,0,0-2-1.1H45.459V18.752h2.556V7.224S56.134,17.758,56.3,17.97a1.793,1.793,0,0,0,1.461.782H59.3V3.367H56.754Zm-17.324.442-1.353-1.358a2.1,2.1,0,0,0-1.556-.614,2.551,2.551,0,0,0-1.722.614l2.846,2.907a4.878,4.878,0,0,1-2.287.551c-3.193,0-5.236-2.587-5.236-5.91s2.043-5.911,5.236-5.911,5.235,2.592,5.235,5.911a6.464,6.464,0,0,1-1.163,3.811M35.358,2.963a7.858,7.858,0,0,0-7.987,8.12A7.859,7.859,0,0,0,35.358,19.2a8.1,8.1,0,0,0,4-1.01l.52.535a2.357,2.357,0,0,0,3.371.023l-2.019-2.036a8.215,8.215,0,0,0,2.129-5.633,7.865,7.865,0,0,0-8-8.12m34.816,13.5h-5.7V5.581h5.117c1.806,0,2.689.614,2.689,2.081,0,1.58-1.316,2.2-2.777,2.2h-4.11c0,1.2.651,2.279,1.871,2.279h2.7c1.715,0,3.083.928,3.083,2.138,0,1.436-1.2,2.189-2.87,2.189m2.681-5.6v-.07a3.555,3.555,0,0,0,2.068-3.42c0-2.383-1.9-4.006-5.056-4.006H61.9V18.752h8.358c3.436,0,5.409-1.869,5.409-4.313,0-1.719-.779-2.813-2.815-3.575"/></svg>